#!OML:ASF F:\VICON\USERDATA\INSTALL\rory3\rory3.ASF
:FULLY-SPECIFIED
:DEGREES
655
root 4.55294 17.3652 2.35253 5.49499 -11.4883 -6.09424
lowerback 12.5317 -0.0564459 3.90103
upperback 5.21544 0.380915 1.47409
thorax -1.539 0.207804 -0.715319
lowerneck -12.6432 -0.393858 -2.53099
upperneck 35.5765 0.0182487 -0.0838389
head 14.3066 -0.395008 0.404054
rclavicle 1.63003e-014 -3.97569e-015
rhumerus -33.0863 -3.42415 -16.6043
rradius 35.5569
rwrist 8.69361
rhand -21.25 -45.0264
rfingers 7.12502
rthumb 5.13295 -74.9443
lclavicle 1.63003e-014 -3.97569e-015
lhumerus -32.4407 3.80482 13.7521
lradius 28.7598
lwrist 10.1085
lhand -25.3394 -33.2928
lfingers 7.12502
lthumb 1.18382 -3.31634
rfemur -100.355 3.22821 28.4759
rtibia 98.3146
rfoot 48.1773 4.79915
rtoes -6.71953
lfemur -19.2024 0.795468 -22.7591
ltibia 31.4695
lfoot -14.4134 8.36528
ltoes 12.4757
656
root 4.55285 17.3641 2.35244 5.52979 -11.4755 -6.16802
lowerback 12.4414 -0.0489023 4.03978
upperback 5.23429 0.400909 1.4659
thorax -1.46787 0.220863 -0.803995
lowerneck -12.5367 -0.403044 -2.53152
upperneck 35.556 -0.00035421 -0.0785912
head 14.2732 -0.401831 0.403511
rclavicle 5.96354e-015 -4.17448e-015
rhumerus -33.0898 -3.6738 -16.5798
rradius 35.3712
rwrist 8.85229
rhand -21.5399 -44.385
rfingers 7.12502
rthumb 4.85305 -74.3094
lclavicle 5.96354e-015 -4.17448e-015
lhumerus -32.3716 3.87325 13.7115
lradius 28.775
lwrist 10.0649
lhand -25.9504 -33.0444
lfingers 7.12502
lthumb 0.593653 -3.06547
rfemur -100.359 3.24796 28.5295
rtibia 98.3074
rfoot 48.2268 4.60557
rtoes -6.46898
lfemur -19.3103 0.898821 -22.6749
ltibia 31.5969
lfoot -14.4628 8.21495
ltoes 12.7411
657
root 4.55192 17.3553 2.35524 5.60007 -11.4871 -6.1839
lowerback 12.3715 -0.027074 4.08611
upperback 5.18844 0.433223 1.46996
thorax -1.47614 0.236967 -0.829955
lowerneck -12.4281 -0.416682 -2.56509
upperneck 35.6469 -0.00830882 -0.0963152
head 14.2909 -0.413086 0.4011
rclavicle -5.86415e-015 -3.37934e-015
rhumerus -33.1957 -3.56554 -16.5882
rradius 35.4165
rwrist 8.69983
rhand -21.7686 -44.0054
rfingers 7.12502
rthumb 4.63222 -73.9348
lclavicle -5.86415e-015 -3.37934e-015
lhumerus -32.2754 4.00205 13.6247
lradius 28.8259
lwrist 10.5081
lhand -26.0936 -31.8274
lfingers 7.12502
lthumb 0.455334 -1.84813
rfemur -100.491 3.28244 28.5364
rtibia 98.3638
rfoot 48.265 4.53719
rtoes -6.58945
lfemur -19.4377 1.18435 -22.6799
ltibia 31.694
lfoot -14.5107 8.03198
ltoes 12.3047
658
root 4.55232 17.3516 2.36068 5.60889 -11.4218 -6.17896
lowerback 12.4171 -0.0442707 4.11375
upperback 5.07941 0.421641 1.49413
thorax -1.61523 0.228007 -0.819387
lowerneck -12.2313 -0.396517 -2.60236
upperneck 35.7222 0.0331658 -0.120507
head 14.2805 -0.404493 0.404342
rclavicle 4.23411e-014 3.57812e-015
rhumerus -33.3295 -3.22998 -16.5872
rradius 35.5661
rwrist 8.47543
rhand -21.7927 -44.0576
rfingers 7.12502
rthumb 4.60894 -73.9874
lclavicle 4.23411e-014 3.57812e-015
lhumerus -32.2342 4.04321 13.5234
lradius 28.867
lwrist 11.0313
lhand -25.0129 -30.4322
lfingers 7.12502
lthumb 1.49911 -0.457702
rfemur -100.526 3.19921 28.5343
rtibia 98.4406
rfoot 48.2706 4.53748
rtoes -7.01044
lfemur -19.4582 1.29473 -22.6986
ltibia 31.7399
lfoot -14.5098 7.90219
ltoes 11.998
659
root 4.55483 17.3532 2.3693 5.52631 -11.3185 -6.12213
lowerback 12.4404 -0.0852418 4.13477
upperback 5.05447 0.372402 1.48286
thorax -1.65576 0.203063 -0.83644
lowerneck -12.089 -0.388407 -2.61695
upperneck 35.6991 0.0462031 -0.127635
head 14.2374 -0.40147 0.406092
rclavicle -1.54058e-014 -1.27222e-014
rhumerus -33.3573 -3.15172 -16.5878
rradius 35.6175
rwrist 8.3977
rhand -21.382 -44.4289
rfingers 7.12502
rthumb 5.00548 -74.3498
lclavicle -1.54058e-014 -1.27222e-014
lhumerus -32.259 3.97243 13.5149
lradius 28.7874
lwrist 10.8682
lhand -24.7549 -30.8965
lfingers 7.12502
lthumb 1.74827 -0.923962
rfemur -100.43 3.0259 28.4593
rtibia 98.5299
rfoot 48.2369 4.32818
rtoes -7.03044
lfemur -19.3312 1.22468 -22.7674
ltibia 31.7306
lfoot -14.5207 7.85478
ltoes 12.1378
660
root 4.55674 17.3553 2.37603 5.49297 -11.3174 -6.079
lowerback 12.3739 -0.10961 4.11959
upperback 5.15078 0.32989 1.44567
thorax -1.52079 0.18535 -0.860386
lowerneck -12.3394 -0.396034 -2.57402
upperneck 35.734 0.0354954 -0.136952
head 14.3105 -0.402318 0.392853
rclavicle 2.87741e-014 -2.50469e-014
rhumerus -33.1717 -3.38124 -16.6827
rradius 35.4525
rwrist 8.48287
rhand -21.1194 -44.6298
rfingers 7.12502
rthumb 5.25906 -74.5445
lclavicle 2.87741e-014 -2.50469e-014
lhumerus -32.3087 4.05366 13.4826
lradius 28.7125
lwrist 10.4768
lhand -24.7592 -32.3401
lfingers 7.12502
lthumb 1.74411 -2.3675
rfemur -100.35 2.9755 28.3721
rtibia 98.5684
rfoot 48.2556 3.94491
rtoes -6.23936
lfemur -19.2435 1.22874 -22.8239
ltibia 31.6704
lfoot -14.5357 7.82882
ltoes 12.1645
661
root 4.55725 17.3569 2.37777 5.53353 -11.3499 -6.04576
lowerback 12.2323 -0.103802 4.10971
upperback 5.26855 0.322803 1.4079
thorax -1.32118 0.186637 -0.892379
lowerneck -12.6487 -0.396648 -2.51288
upperneck 35.7516 0.0376982 -0.159711
head 14.3891 -0.396422 0.372914
rclavicle 2.00276e-014 5.76476e-015
rhumerus -33.0646 -3.53072 -16.8225
rradius 35.4287
rwrist 8.44256
rhand -20.9359 -45.0756
rfingers 7.12502
rthumb 5.43626 -74.9859
lclavicle 2.00276e-014 5.76476e-015
lhumerus -32.2535 4.26444 13.4417
lradius 28.6712
lwrist 10.1427
lhand -24.1873 -33.7233
lfingers 7.12502
lthumb 2.29646 -3.75591
rfemur -100.374 2.98668 28.3133
rtibia 98.5619
rfoot 48.271 3.91412
rtoes -5.7905
lfemur -19.2607 1.25691 -22.8625
ltibia 31.5917
lfoot -14.5184 7.79072
ltoes 12.0583
662
root 4.55707 17.3557 2.37722 5.56575 -11.3234 -5.97319
lowerback 12.0805 -0.0932819 4.0831
upperback 5.35072 0.321646 1.38041
thorax -1.15329 0.189771 -0.905097
lowerneck -12.7368 -0.405321 -2.53623
upperneck 35.7047 0.0240546 -0.12678
head 14.3876 -0.399944 0.388471
rclavicle 2.78299e-014 -7.95139e-015
rhumerus -33.1161 -3.6182 -16.8846
rradius 35.6091
rwrist 8.33258
rhand -20.5301 -45.7293
rfingers 7.12502
rthumb 5.82804 -75.6291
lclavicle 2.78299e-014 -7.95139e-015
lhumerus -32.1434 4.42723 13.4421
lradius 28.6824
lwrist 10.1113
lhand -24.1415 -33.2832
lfingers 7.12502
lthumb 2.34066 -3.31632
rfemur -100.461 2.93597 28.25
rtibia 98.5745
rfoot 48.2275 4.14972
rtoes -6.10794
lfemur -19.2819 1.26032 -22.9413
ltibia 31.5326
lfoot -14.4974 7.7424
ltoes 12.14
663
root 4.55685 17.3537 2.3778 5.5354 -11.2907 -5.88103
lowerback 12.084 -0.096064 4.00028
upperback 5.36605 0.308427 1.36865
thorax -1.14066 0.182565 -0.869121
lowerneck -12.7265 -0.390291 -2.57004
upperneck 35.6951 0.0483688 -0.105551
head 14.3805 -0.390948 0.406994
rclavicle -2.20154e-014 -8.94531e-015
rhumerus -33.1508 -3.75773 -16.8576
rradius 35.6726
rwrist 8.49898
rhand -20.3593 -45.6732
rfingers 7.12502
rthumb 5.99293 -75.5684
lclavicle -2.20154e-014 -8.94531e-015
lhumerus -32.158 4.37208 13.4786
lradius 28.5698
lwrist 10.1839
lhand -25.061 -32.9277
lfingers 7.12502
lthumb 1.45261 -2.9529
rfemur -100.483 2.8579 28.1826
rtibia 98.6099
rfoot 48.1773 4.33588
rtoes -6.46589
lfemur -19.238 1.27397 -23.0476
ltibia 31.4962
lfoot -14.4845 7.71357
ltoes 12.0325
664
root 4.5553 17.3562 2.38124 5.48886 -11.3373 -5.89694
lowerback 12.0826 -0.0754766 3.99565
upperback 5.39823 0.333638 1.37425
thorax -1.10517 0.195795 -0.863801
lowerneck -12.7457 -0.365258 -2.52927
upperneck 35.7218 0.0931917 -0.156173
head 14.3966 -0.373366 0.386093
rclavicle -3.62782e-015 -9.93923e-015
rhumerus -33.1335 -3.87518 -16.8536
rradius 35.6307
rwrist 8.75337
rhand -20.3945 -45.3841
rfingers 7.12502
rthumb 5.95896 -75.2803
lclavicle -3.62782e-015 -9.93923e-015
lhumerus -32.2172 4.25623 13.5263
lradius 28.4689
lwrist 10.0936
lhand -25.9921 -33.9234
lfingers 7.12502
lthumb 0.553381 -3.9444
rfemur -100.381 2.88931 28.2143
rtibia 98.6043
rfoot 48.1033 4.49139
rtoes -6.70383
lfemur -19.1486 1.29257 -23.0314
ltibia 31.4581
lfoot -14.4861 7.74287
ltoes 12.0142
665
root 4.55261 17.3595 2.38371 5.44452 -11.3442 -5.97839
lowerback 12.0746 -0.0642722 4.05282
upperback 5.43406 0.353152 1.4015
thorax -1.06203 0.207017 -0.869887
lowerneck -12.7395 -0.360317 -2.44908
upperneck 35.712 0.11838 -0.268547
head 14.3906 -0.366587 0.329914
rclavicle -6.90777e-015 -3.18055e-015
rhumerus -33.0655 -3.90946 -16.8852
rradius 35.489
rwrist 8.88146
rhand -20.5142 -45.4555
rfingers 7.12502
rthumb 5.84339 -75.3549
lclavicle -6.90777e-015 -3.18055e-015
lhumerus -32.2795 4.23028 13.5308
lradius 28.7876
lwrist 10.1989
lhand -25.6238 -33.4308
lfingers 7.12502
lthumb 0.9091 -3.45297
rfemur -100.25 2.92185 28.3074
rtibia 98.5723
rfoot 48.0002 4.46964
rtoes -6.82393
lfemur -19.0618 1.29599 -22.9314
ltibia 31.4157
lfoot -14.4597 7.78246
ltoes 12.1309
